<svg xmlns="http://www.w3.org/2000/svg" width="890" height="279"><style>$<!-- -->
        .title {
            font-family: &#x27;Segoe UI&#x27;, Roboto, Ubuntu, &#x27;Helvetica Neue&#x27;, sans-serif;
            font-size: 20px;
            font-weight: 400;
            fill: #000;
            animation: fadeIn 0.8s ease-in-out forwards;
        }

        .item {
            opacity: 0;
            animation: fadeIn 0.3s ease-in-out forwards;
        }

        .contribution-stats {
            font-family: &#x27;Segoe UI&#x27;, Roboto, Ubuntu, &#x27;Helvetica Neue&#x27;, sans-serif;
            font-weight: 400;
            font-size: 14px;
            fill: #333;
        }

        .remarks {
            font-size: 11px;
        }

        .updatetime {
            font-size: 8px;
        }

        .repo-origin {
            font-size: 10px;
        }

        .rating-letter-sign {
            font-family: &#x27;Segoe UI&#x27;, Roboto, Ubuntu, &#x27;Helvetica Neue&#x27;, sans-serif;
            font-size: 38px;
            font-weight: 700;
            fill: #eacb2f;
            animation: scaleIn 0.3s ease-in-out forwards;
        }

        .rating-circle-stroke {
            stroke: #ababab;
            stroke-width: 7.5;
            fill: none;
            opacity: 0.2;
        }

        .rating-circle {
            stroke: #eacb2f;
            stroke-dasharray: 250;
            stroke-width: 7.5;
            stroke-linecap: round;
            fill: none;
            opacity: 0.8;
            transform-origin: -10px 8px;
            transform: rotate(-90deg);
            animation: ratingProgressAnimation 1s forwards ease-in-out;
        }

        .bolder {
            font-weight: 700;
            font-family: &#x27;Segoe UI&#x27;, Roboto, Ubuntu, &#x27;Helvetica Neue&#x27;, sans-serif;
        }

		.bigtitle {
			font-size: 25px;
            font-weight: 400;
            fill: #000;
            animation: fadeIn 0.8s ease-in-out forwards;
			font-family: &#x27;Segoe UI&#x27;, Roboto, Ubuntu, &#x27;Helvetica Neue&#x27;, sans-serif;
		}

        .link {
            font: bold;
            fill: rgb(0, 102, 255);
        }

		.graph {
			stroke: #eacb2f;
		}

        @keyframes scaleIn {
            from {
                transform: translate(-5px, 5px) scale(0);
            }
            to {
                transform: translate(-5px, 5px) scale(1);
            }
        }

        @keyframes fadeIn {
            from {
                opacity: 0;
            }
            to {
                opacity: 1;
            }
        }

        @keyframes ratingProgressAnimation {
            from {
                stroke-dashoffset: 250;
            }
            to {
                stroke-dashoffset: 130.33333333333331;
            }
        }</style><rect xmlns="http://www.w3.org/2000/svg" x="0.5" y="0.5" rx="12" width="889" height="228" fill="#efefef" stroke="#e1e4e8"></rect><g transform="translate(10, 0)"><g xmlns="http://www.w3.org/2000/svg" id="ratings" transform="translate(250, 115)"><circle class="rating-circle-stroke" cy="8" r="38"></circle><circle class="rating-circle" cx="-10" cy="18" r="38"></circle><text class="rating-letter-sign" x="6" y="1.5" text-anchor="middle" alignment-baseline="central" dominant-baseline="central">B+</text></g><svg xmlns="http://www.w3.org/2000/svg" x="0" y="17" width="25px" height="25px" viewBox="0 0 50 50" fill="#000"><g transform="scale(0.1)"><path d="M409.132,114.573c-19.608-33.596-46.205-60.194-79.798-79.8C295.736,15.166,259.057,5.365,219.271,5.365c-39.781,0-76.472,9.804-110.063,29.408c-33.596,19.605-60.192,46.204-79.8,79.8C9.803,148.168,0,184.854,0,224.63c0,47.78,13.94,90.745,41.827,128.906c27.884,38.164,63.906,64.572,108.063,79.227c5.14,0.954,8.945,0.283,11.419-1.996c2.475-2.282,3.711-5.14,3.711-8.562c0-0.571-0.049-5.708-0.144-15.417c-0.098-9.709-0.144-18.179-0.144-25.406l-6.567,1.136c-4.187,0.767-9.469,1.092-15.846,1c-6.374-0.089-12.991-0.757-19.842-1.999c-6.854-1.231-13.229-4.086-19.13-8.559c-5.898-4.473-10.085-10.328-12.56-17.556l-2.855-6.57c-1.903-4.374-4.899-9.233-8.992-14.559c-4.093-5.331-8.232-8.945-12.419-10.848l-1.999-1.431c-1.332-0.951-2.568-2.098-3.711-3.429c-1.142-1.331-1.997-2.663-2.568-3.997c-0.572-1.335-0.098-2.43,1.427-3.289c1.525-0.859,4.281-1.276,8.28-1.276l5.708,0.853c3.807,0.763,8.516,3.042,14.133,6.851c5.614,3.806,10.229,8.754,13.846,14.842c4.38,7.806,9.657,13.754,15.846,17.847c6.184,4.093,12.419,6.136,18.699,6.136c6.28,0,11.704-0.476,16.274-1.423c4.565-0.952,8.848-2.383,12.847-4.285c1.713-12.758,6.377-22.559,13.988-29.41c-10.848-1.14-20.601-2.857-29.264-5.14c-8.658-2.286-17.605-5.996-26.835-11.14c-9.235-5.137-16.896-11.516-22.985-19.126c-6.09-7.614-11.088-17.61-14.987-29.979c-3.901-12.374-5.852-26.648-5.852-42.826c0-23.035,7.52-42.637,22.557-58.817c-7.044-17.318-6.379-36.732,1.997-58.24c5.52-1.715,13.706-0.428,24.554,3.853c10.85,4.283,18.794,7.952,23.84,10.994c5.046,3.041,9.089,5.618,12.135,7.708c17.705-4.947,35.976-7.421,54.818-7.421s37.117,2.474,54.823,7.421l10.849-6.849c7.419-4.57,16.18-8.758,26.262-12.565c10.088-3.805,17.802-4.853,23.134-3.138c8.562,21.509,9.325,40.922,2.279,58.24c15.036,16.18,22.559,35.787,22.559,58.817c0,16.178-1.958,30.497-5.853,42.966c-3.9,12.471-8.941,22.457-15.125,29.979c-6.191,7.521-13.901,13.85-23.131,18.986c-9.232,5.14-18.182,8.85-26.84,11.136c-8.662,2.286-18.415,4.004-29.263,5.146c9.894,8.562,14.842,22.077,14.842,40.539v60.237c0,3.422,1.19,6.279,3.572,8.562c2.379,2.279,6.136,2.95,11.276,1.995c44.163-14.653,80.185-41.062,108.068-79.226c27.88-38.161,41.825-81.126,41.825-128.906C438.536,184.851,428.728,148.168,409.132,114.573z"></path></g></svg><text xmlns="http://www.w3.org/2000/svg" class="title bolder" x="30" y="35">Contribution Stats</text><svg xmlns="http://www.w3.org/2000/svg" x="10" y="50"><g class="item" transform="translate(3, 2)"><svg width="16" height="16" viewBox="0 0 16 16" version="1.1" aria-hidden="true"><path fill-rule="evenodd" d="M1.643 3.143L.427 1.927A.25.25 0 000 2.104V5.75c0 .138.112.25.25.25h3.646a.25.25 0 00.177-.427L2.715 4.215a6.5 6.5 0 11-1.18 4.458.75.75 0 10-1.493.154 8.001 8.001 0 101.6-5.684zM7.75 4a.75.75 0 01.75.75v2.992l2.028.812a.75.75 0 01-.557 1.392l-2.5-1A.75.75 0 017 8.25v-3.5A.75.75 0 017.75 4z"></path></svg></g><g class="stagger" transform="translate(25, 15)"><text class="contribution-stats" x="0" y="0">Commits:</text></g></svg><svg xmlns="http://www.w3.org/2000/svg" x="20" y="75"><g id="this_year_commits" class="item" transform="translate(25, 15)"><text class="contribution-stats" x="0" y="0">This Year:</text><text class="contribution-stats bolder" x="101" y="0">718</text></g><g id="this_month_commits" class="item" transform="translate(25, 35)"><text class="contribution-stats" x="0" y="5">This Month:</text><text class="contribution-stats bolder" x="101" y="5">24</text></g><g id="this_week_commits" class="item" transform="translate(25, 55)"><text class="contribution-stats" x="0" y="10">This Week:</text><text class="contribution-stats bolder" x="101" y="10">24</text></g></svg><svg xmlns="http://www.w3.org/2000/svg" x="10" y="150"><g class="item" transform="translate(3, 2)"><svg width="16" height="16" viewBox="0 0 16 16" version="1.1" aria-hidden="true"><path fill-rule="evenodd" d="M7.177 3.073L9.573.677A.25.25 0 0110 .854v4.792a.25.25 0 01-.427.177L7.177 3.427a.25.25 0 010-.354zM3.75 2.5a.75.75 0 100 1.5.75.75 0 000-1.5zm-2.25.75a2.25 2.25 0 113 2.122v5.256a2.251 2.251 0 11-1.5 0V5.372A2.25 2.25 0 011.5 3.25zM11 2.5h-1V4h1a1 1 0 011 1v5.628a2.251 2.251 0 101.5 0V5A2.5 2.5 0 0011 2.5zm1 10.25a.75.75 0 111.5 0 .75.75 0 01-1.5 0zM3.75 12a.75.75 0 100 1.5.75.75 0 000-1.5z"></path></svg></g><g id="pull_requcomponents/MyComponentests" class="item" transform="translate(25, 15)"><text class="contribution-stats" x="0" y="0">Pull Requests:</text><text class="contribution-stats bolder" x="106" y="0">2</text></g></svg><svg xmlns="http://www.w3.org/2000/svg" x="10" y="175"><g class="item" transform="translate(3, 2)"><svg width="16" height="16" viewBox="0 0 16 16" version="1.1" aria-hidden="true"><path fill-rule="evenodd" d="M8 1.5a6.5 6.5 0 100 13 6.5 6.5 0 000-13zM0 8a8 8 0 1116 0A8 8 0 010 8zm9 3a1 1 0 11-2 0 1 1 0 012 0zm-.25-6.25a.75.75 0 00-1.5 0v3.5a.75.75 0 001.5 0v-3.5z"></path></svg></g><g id="issues" class="item" transform="translate(25, 15)"><text class="contribution-stats" x="0" y="0">Issues:</text><text class="contribution-stats bolder" x="106" y="0">2</text></g></svg></g><svg xmlns="http://www.w3.org/2000/svg" x="0" y="0"><g class="item" transform="translate(320, 0)"><line x1="0" y1="40" x2="0" y2="200" style="stroke:#d9d9d9;stroke-width:1"></line></g></svg><g transform="translate(330, 0)"><svg xmlns="http://www.w3.org/2000/svg" width="24" height="24" viewBox="0 0 24 24" fill="none" stroke="currentColor" stroke-width="2" stroke-linecap="round" stroke-linejoin="round" y="17"><polygon points="12 2 15.09 8.26 22 9.27 17 14.14 18.18 21.02 12 17.77 5.82 21.02 7 14.14 2 9.27 8.91 8.26 12 2"></polygon></svg><text xmlns="http://www.w3.org/2000/svg" class="title bolder" x="30" y="35">Top Repositories</text><svg xmlns="http://www.w3.org/2000/svg" x="5" y="50"><g class="item" transform="translate(3, 2)"><svg viewBox="0 0 128 128" height="23" width="22"><g fill="#181616"><path fill-rule="evenodd" clip-rule="evenodd" d="M64 5.103c-33.347 0-60.388 27.035-60.388 60.388 0 26.682 17.303 49.317 41.297 57.303 3.017.56 4.125-1.31 4.125-2.905 0-1.44-.056-6.197-.082-11.243-16.8 3.653-20.345-7.125-20.345-7.125-2.747-6.98-6.705-8.836-6.705-8.836-5.48-3.748.413-3.67.413-3.67 6.063.425 9.257 6.223 9.257 6.223 5.386 9.23 14.127 6.562 17.573 5.02.542-3.903 2.107-6.568 3.834-8.076-13.413-1.525-27.514-6.704-27.514-29.843 0-6.593 2.36-11.98 6.223-16.21-.628-1.52-2.695-7.662.584-15.98 0 0 5.07-1.623 16.61 6.19C53.7 35 58.867 34.327 64 34.304c5.13.023 10.3.694 15.127 2.033 11.526-7.813 16.59-6.19 16.59-6.19 3.287 8.317 1.22 14.46.593 15.98 3.872 4.23 6.215 9.617 6.215 16.21 0 23.194-14.127 28.3-27.574 29.796 2.167 1.874 4.097 5.55 4.097 11.183 0 8.08-.07 14.583-.07 16.572 0 1.607 1.088 3.49 4.148 2.897 23.98-7.994 41.263-30.622 41.263-57.294C124.388 32.14 97.35 5.104 64 5.104z"></path><path d="M26.484 91.806c-.133.3-.605.39-1.035.185-.44-.196-.685-.605-.543-.906.13-.31.603-.395 1.04-.188.44.197.69.61.537.91zm2.446 2.729c-.287.267-.85.143-1.232-.28-.396-.42-.47-.983-.177-1.254.298-.266.844-.14 1.24.28.394.426.472.984.17 1.255zM31.312 98.012c-.37.258-.976.017-1.35-.52-.37-.538-.37-1.183.01-1.44.373-.258.97-.025 1.35.507.368.545.368 1.19-.01 1.452zm3.261 3.361c-.33.365-1.036.267-1.552-.23-.527-.487-.674-1.18-.343-1.544.336-.366 1.045-.264 1.564.23.527.486.686 1.18.333 1.543zm4.5 1.951c-.147.473-.825.688-1.51.486-.683-.207-1.13-.76-.99-1.238.14-.477.823-.7 1.512-.485.683.206 1.13.756.988 1.237zm4.943.361c.017.498-.563.91-1.28.92-.723.017-1.308-.387-1.315-.877 0-.503.568-.91 1.29-.924.717-.013 1.306.387 1.306.88zm4.598-.782c.086.485-.413.984-1.126 1.117-.7.13-1.35-.172-1.44-.653-.086-.498.422-.997 1.122-1.126.714-.123 1.354.17 1.444.663zm0 0"></path></g></svg></g><g id="toplangfirst" class="item" transform="translate(25, 35)"><text class="contribution-stats" x="8" y="-15">jupiter-python-sdk</text></g></svg><svg xmlns="http://www.w3.org/2000/svg" x="5" y="87"><g class="item" transform="translate(3, 2)"><svg viewBox="0 0 128 128" height="23" width="22"><g fill="#181616"><path fill-rule="evenodd" clip-rule="evenodd" d="M64 5.103c-33.347 0-60.388 27.035-60.388 60.388 0 26.682 17.303 49.317 41.297 57.303 3.017.56 4.125-1.31 4.125-2.905 0-1.44-.056-6.197-.082-11.243-16.8 3.653-20.345-7.125-20.345-7.125-2.747-6.98-6.705-8.836-6.705-8.836-5.48-3.748.413-3.67.413-3.67 6.063.425 9.257 6.223 9.257 6.223 5.386 9.23 14.127 6.562 17.573 5.02.542-3.903 2.107-6.568 3.834-8.076-13.413-1.525-27.514-6.704-27.514-29.843 0-6.593 2.36-11.98 6.223-16.21-.628-1.52-2.695-7.662.584-15.98 0 0 5.07-1.623 16.61 6.19C53.7 35 58.867 34.327 64 34.304c5.13.023 10.3.694 15.127 2.033 11.526-7.813 16.59-6.19 16.59-6.19 3.287 8.317 1.22 14.46.593 15.98 3.872 4.23 6.215 9.617 6.215 16.21 0 23.194-14.127 28.3-27.574 29.796 2.167 1.874 4.097 5.55 4.097 11.183 0 8.08-.07 14.583-.07 16.572 0 1.607 1.088 3.49 4.148 2.897 23.98-7.994 41.263-30.622 41.263-57.294C124.388 32.14 97.35 5.104 64 5.104z"></path><path d="M26.484 91.806c-.133.3-.605.39-1.035.185-.44-.196-.685-.605-.543-.906.13-.31.603-.395 1.04-.188.44.197.69.61.537.91zm2.446 2.729c-.287.267-.85.143-1.232-.28-.396-.42-.47-.983-.177-1.254.298-.266.844-.14 1.24.28.394.426.472.984.17 1.255zM31.312 98.012c-.37.258-.976.017-1.35-.52-.37-.538-.37-1.183.01-1.44.373-.258.97-.025 1.35.507.368.545.368 1.19-.01 1.452zm3.261 3.361c-.33.365-1.036.267-1.552-.23-.527-.487-.674-1.18-.343-1.544.336-.366 1.045-.264 1.564.23.527.486.686 1.18.333 1.543zm4.5 1.951c-.147.473-.825.688-1.51.486-.683-.207-1.13-.76-.99-1.238.14-.477.823-.7 1.512-.485.683.206 1.13.756.988 1.237zm4.943.361c.017.498-.563.91-1.28.92-.723.017-1.308-.387-1.315-.877 0-.503.568-.91 1.29-.924.717-.013 1.306.387 1.306.88zm4.598-.782c.086.485-.413.984-1.126 1.117-.7.13-1.35-.172-1.44-.653-.086-.498.422-.997 1.122-1.126.714-.123 1.354.17 1.444.663zm0 0"></path></g></svg></g><g id="toplangfirst" class="item" transform="translate(25, 35)"><text class="contribution-stats" x="8" y="-15">jupiter-python-cli</text></g></svg><svg xmlns="http://www.w3.org/2000/svg" x="5" y="124"><g class="item" transform="translate(3, 2)"><svg viewBox="0 0 128 128" height="23" width="22"><g fill="#181616"><path fill-rule="evenodd" clip-rule="evenodd" d="M64 5.103c-33.347 0-60.388 27.035-60.388 60.388 0 26.682 17.303 49.317 41.297 57.303 3.017.56 4.125-1.31 4.125-2.905 0-1.44-.056-6.197-.082-11.243-16.8 3.653-20.345-7.125-20.345-7.125-2.747-6.98-6.705-8.836-6.705-8.836-5.48-3.748.413-3.67.413-3.67 6.063.425 9.257 6.223 9.257 6.223 5.386 9.23 14.127 6.562 17.573 5.02.542-3.903 2.107-6.568 3.834-8.076-13.413-1.525-27.514-6.704-27.514-29.843 0-6.593 2.36-11.98 6.223-16.21-.628-1.52-2.695-7.662.584-15.98 0 0 5.07-1.623 16.61 6.19C53.7 35 58.867 34.327 64 34.304c5.13.023 10.3.694 15.127 2.033 11.526-7.813 16.59-6.19 16.59-6.19 3.287 8.317 1.22 14.46.593 15.98 3.872 4.23 6.215 9.617 6.215 16.21 0 23.194-14.127 28.3-27.574 29.796 2.167 1.874 4.097 5.55 4.097 11.183 0 8.08-.07 14.583-.07 16.572 0 1.607 1.088 3.49 4.148 2.897 23.98-7.994 41.263-30.622 41.263-57.294C124.388 32.14 97.35 5.104 64 5.104z"></path><path d="M26.484 91.806c-.133.3-.605.39-1.035.185-.44-.196-.685-.605-.543-.906.13-.31.603-.395 1.04-.188.44.197.69.61.537.91zm2.446 2.729c-.287.267-.85.143-1.232-.28-.396-.42-.47-.983-.177-1.254.298-.266.844-.14 1.24.28.394.426.472.984.17 1.255zM31.312 98.012c-.37.258-.976.017-1.35-.52-.37-.538-.37-1.183.01-1.44.373-.258.97-.025 1.35.507.368.545.368 1.19-.01 1.452zm3.261 3.361c-.33.365-1.036.267-1.552-.23-.527-.487-.674-1.18-.343-1.544.336-.366 1.045-.264 1.564.23.527.486.686 1.18.333 1.543zm4.5 1.951c-.147.473-.825.688-1.51.486-.683-.207-1.13-.76-.99-1.238.14-.477.823-.7 1.512-.485.683.206 1.13.756.988 1.237zm4.943.361c.017.498-.563.91-1.28.92-.723.017-1.308-.387-1.315-.877 0-.503.568-.91 1.29-.924.717-.013 1.306.387 1.306.88zm4.598-.782c.086.485-.413.984-1.126 1.117-.7.13-1.35-.172-1.44-.653-.086-.498.422-.997 1.122-1.126.714-.123 1.354.17 1.444.663zm0 0"></path></g></svg></g><g id="toplangfirst" class="item" transform="translate(25, 35)"><text class="contribution-stats" x="8" y="-15">space-station</text></g></svg><svg xmlns="http://www.w3.org/2000/svg" x="5" y="161"><g class="item" transform="translate(3, 2)"><svg viewBox="0 0 128 128" height="23" width="22"><g fill="#181616"><path fill-rule="evenodd" clip-rule="evenodd" d="M64 5.103c-33.347 0-60.388 27.035-60.388 60.388 0 26.682 17.303 49.317 41.297 57.303 3.017.56 4.125-1.31 4.125-2.905 0-1.44-.056-6.197-.082-11.243-16.8 3.653-20.345-7.125-20.345-7.125-2.747-6.98-6.705-8.836-6.705-8.836-5.48-3.748.413-3.67.413-3.67 6.063.425 9.257 6.223 9.257 6.223 5.386 9.23 14.127 6.562 17.573 5.02.542-3.903 2.107-6.568 3.834-8.076-13.413-1.525-27.514-6.704-27.514-29.843 0-6.593 2.36-11.98 6.223-16.21-.628-1.52-2.695-7.662.584-15.98 0 0 5.07-1.623 16.61 6.19C53.7 35 58.867 34.327 64 34.304c5.13.023 10.3.694 15.127 2.033 11.526-7.813 16.59-6.19 16.59-6.19 3.287 8.317 1.22 14.46.593 15.98 3.872 4.23 6.215 9.617 6.215 16.21 0 23.194-14.127 28.3-27.574 29.796 2.167 1.874 4.097 5.55 4.097 11.183 0 8.08-.07 14.583-.07 16.572 0 1.607 1.088 3.49 4.148 2.897 23.98-7.994 41.263-30.622 41.263-57.294C124.388 32.14 97.35 5.104 64 5.104z"></path><path d="M26.484 91.806c-.133.3-.605.39-1.035.185-.44-.196-.685-.605-.543-.906.13-.31.603-.395 1.04-.188.44.197.69.61.537.91zm2.446 2.729c-.287.267-.85.143-1.232-.28-.396-.42-.47-.983-.177-1.254.298-.266.844-.14 1.24.28.394.426.472.984.17 1.255zM31.312 98.012c-.37.258-.976.017-1.35-.52-.37-.538-.37-1.183.01-1.44.373-.258.97-.025 1.35.507.368.545.368 1.19-.01 1.452zm3.261 3.361c-.33.365-1.036.267-1.552-.23-.527-.487-.674-1.18-.343-1.544.336-.366 1.045-.264 1.564.23.527.486.686 1.18.333 1.543zm4.5 1.951c-.147.473-.825.688-1.51.486-.683-.207-1.13-.76-.99-1.238.14-.477.823-.7 1.512-.485.683.206 1.13.756.988 1.237zm4.943.361c.017.498-.563.91-1.28.92-.723.017-1.308-.387-1.315-.877 0-.503.568-.91 1.29-.924.717-.013 1.306.387 1.306.88zm4.598-.782c.086.485-.413.984-1.126 1.117-.7.13-1.35-.172-1.44-.653-.086-.498.422-.997 1.122-1.126.714-.123 1.354.17 1.444.663zm0 0"></path></g></svg></g><g id="toplangfirst" class="item" transform="translate(25, 35)"><text class="contribution-stats" x="8" y="-15">Wallet-Trades-Tracker</text></g></svg></g><svg xmlns="http://www.w3.org/2000/svg" x="0" y="0"><g class="item" transform="translate(510, 0)"><line x1="0" y1="40" x2="0" y2="200" style="stroke:#d9d9d9;stroke-width:1"></line></g></svg><g transform="translate(520, 0)"><svg xmlns="http://www.w3.org/2000/svg" width="25" height="25" viewBox="0 0 24 24" fill="none" stroke="currentColor" stroke-width="2" y="17"><polyline points="16 18 22 12 16 6"></polyline><polyline points="8 6 2 12 8 18"></polyline></svg><text xmlns="http://www.w3.org/2000/svg" class="title bolder" x="30" y="35">Top Languages</text><svg xmlns="http://www.w3.org/2000/svg" x="5" y="50"><g class="item" transform="translate(3, 2)"><svg viewBox="0 0 128 128" height="25" width="25"><linearGradient id="python-original-a" gradientUnits="userSpaceOnUse" x1="70.252" y1="1237.476" x2="170.659" y2="1151.089" gradientTransform="matrix(.563 0 0 -.568 -29.215 707.817)"><stop offset="0" stop-color="#5A9FD4"></stop><stop offset="1" stop-color="#306998"></stop></linearGradient><linearGradient id="python-original-b" gradientUnits="userSpaceOnUse" x1="209.474" y1="1098.811" x2="173.62" y2="1149.537" gradientTransform="matrix(.563 0 0 -.568 -29.215 707.817)"><stop offset="0" stop-color="#FFD43B"></stop><stop offset="1" stop-color="#FFE873"></stop></linearGradient><path fill="url(#python-original-a)" d="M63.391 1.988c-4.222.02-8.252.379-11.8 1.007-10.45 1.846-12.346 5.71-12.346 12.837v9.411h24.693v3.137H29.977c-7.176 0-13.46 4.313-15.426 12.521-2.268 9.405-2.368 15.275 0 25.096 1.755 7.311 5.947 12.519 13.124 12.519h8.491V67.234c0-8.151 7.051-15.34 15.426-15.34h24.665c6.866 0 12.346-5.654 12.346-12.548V15.833c0-6.693-5.646-11.72-12.346-12.837-4.244-.706-8.645-1.027-12.866-1.008zM50.037 9.557c2.55 0 4.634 2.117 4.634 4.721 0 2.593-2.083 4.69-4.634 4.69-2.56 0-4.633-2.097-4.633-4.69-.001-2.604 2.073-4.721 4.633-4.721z" transform="translate(0 10.26)"></path><path fill="url(#python-original-b)" d="M91.682 28.38v10.966c0 8.5-7.208 15.655-15.426 15.655H51.591c-6.756 0-12.346 5.783-12.346 12.549v23.515c0 6.691 5.818 10.628 12.346 12.547 7.816 2.297 15.312 2.713 24.665 0 6.216-1.801 12.346-5.423 12.346-12.547v-9.412H63.938v-3.138h37.012c7.176 0 9.852-5.005 12.348-12.519 2.578-7.735 2.467-15.174 0-25.096-1.774-7.145-5.161-12.521-12.348-12.521h-9.268zM77.809 87.927c2.561 0 4.634 2.097 4.634 4.692 0 2.602-2.074 4.719-4.634 4.719-2.55 0-4.633-2.117-4.633-4.719 0-2.595 2.083-4.692 4.633-4.692z" transform="translate(0 10.26)"></path><radialGradient id="python-original-c" cx="1825.678" cy="444.45" r="26.743" gradientTransform="matrix(0 -.24 -1.055 0 532.979 557.576)" gradientUnits="userSpaceOnUse"><stop offset="0" stop-color="#B8B8B8" stop-opacity=".498"></stop><stop offset="1" stop-color="#7F7F7F" stop-opacity="0"></stop></radialGradient><path opacity=".444" fill="url(#python-original-c)" d="M97.309 119.597c0 3.543-14.816 6.416-33.091 6.416-18.276 0-33.092-2.873-33.092-6.416 0-3.544 14.815-6.417 33.092-6.417 18.275 0 33.091 2.872 33.091 6.417z"></path></svg></g><g id="toplangfirst" class="item" transform="translate(25, 35)"><text class="contribution-stats" x="10" y="-18">Python</text></g></svg><svg xmlns="http://www.w3.org/2000/svg" x="5" y="87"><g class="item" transform="translate(3, 2)"><svg viewBox="0 0 128 128" height="25" width="25"><path fill="#fff" d="M22.67 47h99.67v73.67H22.67z"></path><path data-name="original" fill="#007acc" d="M1.5 63.91v62.5h125v-125H1.5zm100.73-5a15.56 15.56 0 017.82 4.5 20.58 20.58 0 013 4c0 .16-5.4 3.81-8.69 5.85-.12.08-.6-.44-1.13-1.23a7.09 7.09 0 00-5.87-3.53c-3.79-.26-6.23 1.73-6.21 5a4.58 4.58 0 00.54 2.34c.83 1.73 2.38 2.76 7.24 4.86 8.95 3.85 12.78 6.39 15.16 10 2.66 4 3.25 10.46 1.45 15.24-2 5.2-6.9 8.73-13.83 9.9a38.32 38.32 0 01-9.52-.1 23 23 0 01-12.72-6.63c-1.15-1.27-3.39-4.58-3.25-4.82a9.34 9.34 0 011.15-.73L82 101l3.59-2.08.75 1.11a16.78 16.78 0 004.74 4.54c4 2.1 9.46 1.81 12.16-.62a5.43 5.43 0 00.69-6.92c-1-1.39-3-2.56-8.59-5-6.45-2.78-9.23-4.5-11.77-7.24a16.48 16.48 0 01-3.43-6.25 25 25 0 01-.22-8c1.33-6.23 6-10.58 12.82-11.87a31.66 31.66 0 019.49.26zm-29.34 5.24v5.12H56.66v46.23H45.15V69.26H28.88v-5a49.19 49.19 0 01.12-5.17C29.08 59 39 59 51 59h21.83z"></path></svg></g><g id="toplangfirst" class="item" transform="translate(25, 35)"><text class="contribution-stats" x="10" y="-18">TypeScript</text></g></svg><svg xmlns="http://www.w3.org/2000/svg" x="5" y="124"><g class="item" transform="translate(3, 2)"><svg viewBox="0 0 128 128" height="25" width="25"><path fill="#F0DB4F" d="M1.408 1.408h125.184v125.185H1.408z"></path><path fill="#323330" d="M116.347 96.736c-.917-5.711-4.641-10.508-15.672-14.981-3.832-1.761-8.104-3.022-9.377-5.926-.452-1.69-.512-2.642-.226-3.665.821-3.32 4.784-4.355 7.925-3.403 2.023.678 3.938 2.237 5.093 4.724 5.402-3.498 5.391-3.475 9.163-5.879-1.381-2.141-2.118-3.129-3.022-4.045-3.249-3.629-7.676-5.498-14.756-5.355l-3.688.477c-3.534.893-6.902 2.748-8.877 5.235-5.926 6.724-4.236 18.492 2.975 23.335 7.104 5.332 17.54 6.545 18.873 11.531 1.297 6.104-4.486 8.08-10.234 7.378-4.236-.881-6.592-3.034-9.139-6.949-4.688 2.713-4.688 2.713-9.508 5.485 1.143 2.499 2.344 3.63 4.26 5.795 9.068 9.198 31.76 8.746 35.83-5.176.165-.478 1.261-3.666.38-8.581zM69.462 58.943H57.753l-.048 30.272c0 6.438.333 12.34-.714 14.149-1.713 3.558-6.152 3.117-8.175 2.427-2.059-1.012-3.106-2.451-4.319-4.485-.333-.584-.583-1.036-.667-1.071l-9.52 5.83c1.583 3.249 3.915 6.069 6.902 7.901 4.462 2.678 10.459 3.499 16.731 2.059 4.082-1.189 7.604-3.652 9.448-7.401 2.666-4.915 2.094-10.864 2.07-17.444.06-10.735.001-21.468.001-32.237z"></path></svg></g><g id="toplangfirst" class="item" transform="translate(25, 35)"><text class="contribution-stats" x="10" y="-18">JavaScript</text></g></svg><svg xmlns="http://www.w3.org/2000/svg" x="5" y="161"><g class="item" transform="translate(3, 2)"><svg viewBox="0 0 128 128" height="25" width="25"><path fill="#1572B6" d="M18.814 114.123L8.76 1.352h110.48l-10.064 112.754-45.243 12.543-45.119-12.526z"></path><path fill="#33A9DC" d="M64.001 117.062l36.559-10.136 8.601-96.354h-45.16v106.49z"></path><path fill="#fff" d="M64.001 51.429h18.302l1.264-14.163H64.001V23.435h34.682l-.332 3.711-3.4 38.114h-30.95V51.429z"></path><path fill="#EBEBEB" d="M64.083 87.349l-.061.018-15.403-4.159-.985-11.031H33.752l1.937 21.717 28.331 7.863.063-.018v-14.39z"></path><path fill="#fff" d="M81.127 64.675l-1.666 18.522-15.426 4.164v14.39l28.354-7.858.208-2.337 2.406-26.881H81.127z"></path><path fill="#EBEBEB" d="M64.048 23.435v13.831H30.64l-.277-3.108-.63-7.012-.331-3.711h34.646zm-.047 27.996v13.831H48.792l-.277-3.108-.631-7.012-.33-3.711h16.447z"></path></svg></g><g id="toplangfirst" class="item" transform="translate(25, 35)"><text class="contribution-stats" x="10" y="-18">CSS</text></g></svg></g><svg xmlns="http://www.w3.org/2000/svg" x="0" y="0"><g class="item" transform="translate(700, 0)"><line x1="0" y1="40" x2="0" y2="200" style="stroke:#d9d9d9;stroke-width:1"></line></g></svg><g transform="translate(710, 0)"><svg xmlns="http://www.w3.org/2000/svg" width="25" height="25" viewBox="0 0 24 24" fill="none" stroke="currentColor" stroke-width="2" stroke-linecap="round" stroke-linejoin="round" y="17"><polyline points="22 12 18 12 15 21 9 3 6 12 2 12"></polyline></svg><text xmlns="http://www.w3.org/2000/svg" class="title bolder" x="30" y="35">Commit Graph</text><svg width="153" height="157" viewBox="0 0 153 157" fill="none" xmlns="http://www.w3.org/2000/svg" x="5" y="50" class="item"><line x1="13.0006" y1="137.92" x2="152.001" y2="138.001" stroke="#666666" stroke-width="2"></line><line x1="13" y1="125.333" x2="152" y2="125.333" stroke="#DADADA"></line><line x1="13" y1="113.253" x2="152" y2="113.253" stroke="#DADADA"></line><line x1="13" y1="101.173" x2="152" y2="101.173" stroke="#DADADA"></line><line x1="13" y1="89.0934" x2="152" y2="89.0934" stroke="#DADADA"></line><line x1="13" y1="77.0134" x2="152" y2="77.0134" stroke="#DADADA"></line><line x1="13" y1="64.9333" x2="152" y2="64.9334" stroke="#DADADA"></line><line x1="13" y1="52.8533" x2="152" y2="52.8533" stroke="#DADADA"></line><line x1="13" y1="40.7734" x2="152" y2="40.7734" stroke="#DADADA"></line><line x1="13" y1="28.6934" x2="152" y2="28.6934" stroke="#DADADA"></line><line x1="13" y1="16.6133" x2="152" y2="16.6133" stroke="#DADADA"></line><line x1="13" y1="4.53333" x2="152" y2="4.53334" stroke="#DADADA"></line><line x1="22.5" y1="4" x2="22.5" y2="137.015" stroke="#DADADA"></line><line x1="33.5" y1="5" x2="33.5" y2="137" stroke="#DADADA"></line><line x1="44.5" y1="4" x2="44.5" y2="137.015" stroke="#DADADA"></line><line x1="55.5" y1="5" x2="55.5" y2="137" stroke="#DADADA"></line><line x1="66.5" y1="4" x2="66.5" y2="137.015" stroke="#DADADA"></line><line x1="77.5" y1="5" x2="77.5" y2="137" stroke="#DADADA"></line><line x1="88.5" y1="4" x2="88.5" y2="137.015" stroke="#DADADA"></line><line x1="99.5" y1="5" x2="99.5" y2="137" stroke="#DADADA"></line><line x1="110.5" y1="4" x2="110.5" y2="137.015" stroke="#DADADA"></line><line x1="121.5" y1="5" x2="121.5" y2="137" stroke="#DADADA"></line><line x1="132.5" y1="4" x2="132.5" y2="137.015" stroke="#DADADA"></line><line x1="143.5" y1="5" x2="143.5" y2="137" stroke="#DADADA"></line><svg width="140" height="100" y="35" x="12"><path fill="none" stroke-width="2" d="M0,100L2.745,100L5.49,100L8.235,100L10.98,100L13.725,100L16.471,100L19.216,100L21.961,100L24.706,100L27.451,50L30.196,72.581L32.941,88.71L35.686,56.452L38.431,56.452L41.176,16.129L43.922,77.419L46.667,0L49.412,20.968L52.157,77.419L54.902,87.097L57.647,80.645L60.392,33.871L63.137,83.871L65.882,96.774L68.627,91.935L71.373,100L74.118,100L76.863,91.935L79.608,83.871L82.353,69.355L85.098,82.258L87.843,70.968L90.588,96.774L93.333,45.161L96.078,37.097L98.824,62.903L101.569,74.194L104.314,69.355L107.059,100L109.804,85.484L112.549,100L115.294,82.258L118.039,14.516L120.784,69.355L123.529,96.774L126.275,96.774L129.02,100L131.765,90.323L134.51,83.871L137.255,95.161L140,91.935" class="graph"></path></svg><g id="toplangfirst" class="item" transform="translate(12, 152)"><text class="contribution-stats remarks">Last 13 months of commits</text></g><path d="M4.42116 122.709V127.8H3.65057V123.48H3.62074L2.4027 124.275V123.539L3.67294 122.709H4.42116ZM7.57067 127.885C7.17791 127.883 6.84233 127.779 6.56392 127.574C6.28551 127.368 6.07256 127.069 5.92507 126.676C5.77758 126.284 5.70384 125.811 5.70384 125.257C5.70384 124.705 5.77758 124.234 5.92507 123.843C6.07422 123.452 6.288 123.153 6.56641 122.948C6.84647 122.742 7.18123 122.64 7.57067 122.64C7.96011 122.64 8.29403 122.743 8.57244 122.95C8.85085 123.156 9.0638 123.454 9.21129 123.845C9.36044 124.235 9.43501 124.705 9.43501 125.257C9.43501 125.812 9.36127 126.286 9.21378 126.679C9.06629 127.07 8.85334 127.369 8.57493 127.576C8.29652 127.782 7.96177 127.885 7.57067 127.885ZM7.57067 127.221C7.91536 127.221 8.18466 127.053 8.37855 126.716C8.5741 126.38 8.67188 125.893 8.67188 125.257C8.67188 124.834 8.62713 124.477 8.53764 124.186C8.44981 123.892 8.32304 123.67 8.15732 123.52C7.99325 123.367 7.7977 123.291 7.57067 123.291C7.22763 123.291 6.95833 123.46 6.76278 123.798C6.56723 124.136 6.46863 124.622 6.46697 125.257C6.46697 125.681 6.51089 126.04 6.59872 126.333C6.68821 126.625 6.81499 126.846 6.97905 126.997C7.14311 127.146 7.34032 127.221 7.57067 127.221Z" fill="#C5C5C5"></path><path d="M2.4897 115.72V115.163L4.21236 113.378C4.39631 113.184 4.54794 113.015 4.66726 112.869C4.78823 112.721 4.87855 112.581 4.93821 112.449C4.99787 112.316 5.0277 112.175 5.0277 112.026C5.0277 111.857 4.98793 111.711 4.90838 111.589C4.82884 111.464 4.72029 111.369 4.58274 111.303C4.44519 111.235 4.29025 111.201 4.1179 111.201C3.93561 111.201 3.77652 111.238 3.64062 111.313C3.50473 111.387 3.40033 111.492 3.32741 111.628C3.2545 111.764 3.21804 111.923 3.21804 112.106H2.48473C2.48473 111.796 2.55599 111.525 2.69851 111.293C2.84103 111.061 3.03658 110.881 3.28516 110.753C3.53374 110.624 3.81629 110.559 4.13281 110.559C4.45265 110.559 4.73438 110.623 4.97798 110.751C5.22325 110.877 5.41465 111.049 5.5522 111.268C5.68975 111.485 5.75852 111.73 5.75852 112.004C5.75852 112.193 5.72289 112.377 5.65163 112.558C5.58203 112.739 5.46023 112.94 5.28622 113.162C5.11222 113.382 4.87027 113.65 4.56037 113.965L3.54865 115.024V115.061H5.84055V115.72H2.4897ZM8.55504 115.804C8.16229 115.803 7.8267 115.699 7.5483 115.494C7.26989 115.288 7.05694 114.989 6.90945 114.596C6.76196 114.204 6.68821 113.731 6.68821 113.177C6.68821 112.625 6.76196 112.154 6.90945 111.763C7.05859 111.371 7.27237 111.073 7.55078 110.868C7.83085 110.662 8.1656 110.559 8.55504 110.559C8.94448 110.559 9.27841 110.663 9.55682 110.87C9.83523 111.076 10.0482 111.374 10.1957 111.765C10.3448 112.155 10.4194 112.625 10.4194 113.177C10.4194 113.732 10.3456 114.206 10.1982 114.599C10.0507 114.99 9.83771 115.289 9.5593 115.496C9.2809 115.702 8.94614 115.804 8.55504 115.804ZM8.55504 115.141C8.89974 115.141 9.16903 114.973 9.36293 114.636C9.55848 114.3 9.65625 113.813 9.65625 113.177C9.65625 112.754 9.61151 112.397 9.52202 112.106C9.43419 111.812 9.30741 111.59 9.14169 111.439C8.97763 111.287 8.78208 111.211 8.55504 111.211C8.212 111.211 7.94271 111.38 7.74716 111.718C7.55161 112.056 7.45301 112.542 7.45135 113.177C7.45135 113.601 7.49527 113.96 7.5831 114.253C7.67259 114.545 7.79936 114.766 7.96342 114.917C8.12749 115.066 8.32469 115.141 8.55504 115.141Z" fill="#C5C5C5"></path><path d="M4.26207 103.71C3.92069 103.71 3.61577 103.651 3.3473 103.533C3.08049 103.415 2.8692 103.252 2.71342 103.043C2.5593 102.833 2.47644 102.589 2.46484 102.313H3.24538C3.25533 102.463 3.30587 102.594 3.39702 102.705C3.48982 102.815 3.6108 102.899 3.75994 102.959C3.90909 103.019 4.07481 103.048 4.2571 103.048C4.45762 103.048 4.63494 103.014 4.78906 102.944C4.94484 102.874 5.06664 102.777 5.15447 102.653C5.24231 102.527 5.28622 102.382 5.28622 102.218C5.28622 102.047 5.24231 101.897 5.15447 101.768C5.0683 101.637 4.94152 101.535 4.77415 101.46C4.60843 101.385 4.40791 101.348 4.17259 101.348H3.74254V100.722H4.17259C4.36151 100.722 4.52723 100.688 4.66974 100.62C4.81392 100.552 4.92661 100.457 5.00781 100.336C5.08902 100.214 5.12962 100.07 5.12962 99.9063C5.12962 99.7489 5.09399 99.6122 5.02273 99.4962C4.95313 99.3785 4.85369 99.2866 4.72443 99.2203C4.59683 99.154 4.44602 99.1208 4.27202 99.1208C4.1063 99.1208 3.95135 99.1515 3.80717 99.2128C3.66465 99.2725 3.54865 99.3586 3.45916 99.4713C3.36967 99.5824 3.32161 99.7158 3.31499 99.8715H2.57173C2.58002 99.5965 2.66122 99.3545 2.81534 99.1457C2.97112 98.9369 3.17661 98.7737 3.43182 98.656C3.68703 98.5383 3.97041 98.4795 4.28196 98.4795C4.60843 98.4795 4.89015 98.5433 5.12713 98.6709C5.36577 98.7969 5.54972 98.9651 5.67898 99.1755C5.8099 99.386 5.87453 99.6163 5.87287 99.8666C5.87453 100.152 5.79498 100.394 5.63423 100.592C5.47514 100.791 5.26302 100.925 4.99787 100.993V101.032C5.33594 101.084 5.59777 101.218 5.78338 101.435C5.97064 101.652 6.06345 101.922 6.06179 102.243C6.06345 102.523 5.98556 102.774 5.82812 102.996C5.67235 103.218 5.4594 103.393 5.18928 103.521C4.91915 103.647 4.61009 103.71 4.26207 103.71ZM8.77379 103.725C8.38104 103.723 8.04545 103.619 7.76705 103.414C7.48864 103.208 7.27569 102.909 7.1282 102.516C6.98071 102.124 6.90696 101.651 6.90696 101.097C6.90696 100.545 6.98071 100.074 7.1282 99.6826C7.27734 99.2915 7.49112 98.9932 7.76953 98.7877C8.0496 98.5822 8.38435 98.4795 8.77379 98.4795C9.16323 98.4795 9.49716 98.5831 9.77557 98.7902C10.054 98.9957 10.2669 99.294 10.4144 99.6851C10.5636 100.075 10.6381 100.545 10.6381 101.097C10.6381 101.652 10.5644 102.126 10.4169 102.519C10.2694 102.91 10.0565 103.209 9.77805 103.416C9.49965 103.622 9.16489 103.725 8.77379 103.725ZM8.77379 103.061C9.11849 103.061 9.38778 102.893 9.58168 102.556C9.77723 102.22 9.875 101.733 9.875 101.097C9.875 100.674 9.83026 100.317 9.74077 100.026C9.65294 99.7323 9.52616 99.5103 9.36044 99.3595C9.19638 99.207 9.00083 99.1308 8.77379 99.1308C8.43075 99.1308 8.16146 99.2998 7.96591 99.6379C7.77036 99.976 7.67176 100.462 7.6701 101.097C7.6701 101.521 7.71402 101.88 7.80185 102.173C7.89134 102.465 8.01811 102.686 8.18217 102.837C8.34624 102.986 8.54344 103.061 8.77379 103.061Z" fill="#C5C5C5"></path><path d="M2.38281 90.5657V89.9443L4.58274 86.4691H5.07244V87.3839H4.76172L3.18821 89.8747V89.9145H6.20348V90.5657H2.38281ZM4.79652 91.5601V90.3768L4.80149 90.0934V86.4691H5.52983V91.5601H4.79652ZM8.84215 91.6446C8.4494 91.6429 8.11381 91.5393 7.8354 91.3339C7.557 91.1284 7.34405 90.8292 7.19656 90.4365C7.04906 90.0437 6.97532 89.5706 6.97532 89.0171C6.97532 88.4652 7.04906 87.9938 7.19656 87.6027C7.3457 87.2116 7.55948 86.9133 7.83789 86.7078C8.11796 86.5023 8.45271 86.3995 8.84215 86.3995C9.23159 86.3995 9.56552 86.5031 9.84393 86.7103C10.1223 86.9158 10.3353 87.2141 10.4828 87.6052C10.6319 87.9946 10.7065 88.4652 10.7065 89.0171C10.7065 89.5723 10.6328 90.0462 10.4853 90.439C10.3378 90.8301 10.1248 91.1292 9.84641 91.3363C9.568 91.5418 9.23325 91.6446 8.84215 91.6446ZM8.84215 90.9809C9.18685 90.9809 9.45614 90.8127 9.65004 90.4763C9.84558 90.1398 9.94336 89.6535 9.94336 89.0171C9.94336 88.5945 9.89862 88.2374 9.80913 87.9457C9.7213 87.6524 9.59452 87.4303 9.4288 87.2795C9.26474 87.1271 9.06919 87.0508 8.84215 87.0508C8.49911 87.0508 8.22982 87.2199 8.03427 87.5579C7.83872 87.896 7.74012 88.3824 7.73846 89.0171C7.73846 89.4413 7.78237 89.8001 7.87021 90.0934C7.95969 90.3851 8.08647 90.6063 8.25053 90.7571C8.4146 90.9063 8.6118 90.9809 8.84215 90.9809Z" fill="#C5C5C5"></path><path d="M4.1701 79.5496C3.85855 79.5496 3.57848 79.4899 3.3299 79.3706C3.08298 79.2496 2.88577 79.0839 2.73828 78.8734C2.59079 78.663 2.51207 78.4227 2.50213 78.1526H3.24787C3.2661 78.3713 3.36304 78.5511 3.53871 78.692C3.71437 78.8328 3.92483 78.9033 4.1701 78.9033C4.36565 78.9033 4.53883 78.8585 4.68963 78.769C4.84209 78.6779 4.96141 78.5528 5.04759 78.3937C5.13542 78.2346 5.17933 78.0531 5.17933 77.8493C5.17933 77.6421 5.13459 77.4574 5.0451 77.295C4.95561 77.1326 4.83215 77.005 4.67472 76.9122C4.51894 76.8194 4.33996 76.7721 4.13778 76.7705C3.98366 76.7705 3.82872 76.797 3.67294 76.85C3.51716 76.903 3.39122 76.9726 3.2951 77.0588L2.59162 76.9544L2.87749 74.3891H5.67649V75.0478H3.51634L3.35476 76.4722H3.38459C3.48402 76.3761 3.61577 76.2957 3.77983 76.231C3.94555 76.1664 4.12287 76.1341 4.31179 76.1341C4.62169 76.1341 4.89761 76.2078 5.13956 76.3553C5.38317 76.5028 5.57457 76.7042 5.71378 76.9594C5.85464 77.2129 5.92424 77.5046 5.92259 77.8344C5.92424 78.1642 5.84967 78.4583 5.69886 78.7168C5.54972 78.9754 5.34257 79.1792 5.07741 79.3283C4.81392 79.4758 4.51148 79.5496 4.1701 79.5496ZM8.60289 79.5645C8.21014 79.5628 7.87456 79.4593 7.59615 79.2538C7.31774 79.0483 7.10479 78.7492 6.9573 78.3564C6.80981 77.9636 6.73606 77.4905 6.73606 76.937C6.73606 76.3852 6.80981 75.9137 6.9573 75.5226C7.10645 75.1315 7.32022 74.8332 7.59863 74.6277C7.8787 74.4222 8.21345 74.3195 8.60289 74.3195C8.99234 74.3195 9.32626 74.423 9.60467 74.6302C9.88308 74.8357 10.096 75.134 10.2435 75.5251C10.3927 75.9145 10.4672 76.3852 10.4672 76.937C10.4672 77.4922 10.3935 77.9661 10.246 78.3589C10.0985 78.75 9.88556 79.0491 9.60716 79.2563C9.32875 79.4618 8.99399 79.5645 8.60289 79.5645ZM8.60289 78.9008C8.94759 78.9008 9.21689 78.7326 9.41078 78.3962C9.60633 78.0598 9.7041 77.5734 9.7041 76.937C9.7041 76.5144 9.65936 76.1573 9.56987 75.8656C9.48204 75.5723 9.35526 75.3502 9.18954 75.1994C9.02548 75.047 8.82993 74.9707 8.60289 74.9707C8.25985 74.9707 7.99056 75.1398 7.79501 75.4778C7.59946 75.8159 7.50086 76.3023 7.4992 76.937C7.4992 77.3613 7.54312 77.72 7.63095 78.0134C7.72044 78.305 7.84721 78.5263 8.01127 78.6771C8.17534 78.8262 8.37254 78.9008 8.60289 78.9008Z" fill="#C5C5C5"></path><path d="M4.26705 67.4696C4.04001 67.4663 3.81629 67.4249 3.59588 67.3453C3.37713 67.2658 3.17827 67.1332 2.99929 66.9476C2.82031 66.762 2.67696 66.5126 2.56925 66.1994C2.46319 65.8862 2.41016 65.4951 2.41016 65.0261C2.41016 64.582 2.45407 64.1875 2.5419 63.8429C2.63139 63.4982 2.75982 63.2073 2.9272 62.9703C3.09458 62.7317 3.29676 62.5502 3.53374 62.4259C3.77072 62.3017 4.0367 62.2395 4.33168 62.2395C4.63494 62.2395 4.90424 62.2992 5.13956 62.4185C5.37488 62.5378 5.56546 62.7027 5.71129 62.9132C5.85878 63.1236 5.95241 63.3631 5.99219 63.6316H5.23402C5.18265 63.4194 5.08073 63.2463 4.92827 63.112C4.7758 62.9778 4.57694 62.9107 4.33168 62.9107C3.95881 62.9107 3.66797 63.0731 3.45916 63.3979C3.25201 63.7227 3.14761 64.1743 3.14595 64.7527H3.18324C3.27107 64.6085 3.37879 64.4858 3.50639 64.3848C3.63565 64.282 3.77983 64.2033 3.93892 64.1486C4.09967 64.0923 4.2687 64.0641 4.44602 64.0641C4.741 64.0641 5.00781 64.1362 5.24645 64.2804C5.48674 64.4229 5.67815 64.6201 5.82067 64.872C5.96319 65.1239 6.03445 65.4122 6.03445 65.737C6.03445 66.0618 5.9607 66.356 5.81321 66.6195C5.66738 66.883 5.46188 67.0918 5.19673 67.2459C4.93158 67.3984 4.62169 67.4729 4.26705 67.4696ZM4.26456 66.8233C4.46011 66.8233 4.63494 66.7753 4.78906 66.6791C4.94318 66.583 5.06499 66.4538 5.15447 66.2914C5.24396 66.129 5.28871 65.9475 5.28871 65.747C5.28871 65.5514 5.24479 65.3733 5.15696 65.2125C5.07079 65.0518 4.95147 64.9242 4.79901 64.8297C4.6482 64.7353 4.47585 64.688 4.28196 64.688C4.13447 64.688 3.99775 64.7162 3.8718 64.7725C3.74751 64.8289 3.63814 64.9068 3.54368 65.0062C3.44922 65.1056 3.37464 65.22 3.31996 65.3492C3.26693 65.4768 3.24041 65.6119 3.24041 65.7544C3.24041 65.945 3.28433 66.1215 3.37216 66.2839C3.46165 66.4463 3.58345 66.5772 3.73757 66.6767C3.89335 66.7744 4.06901 66.8233 4.26456 66.8233ZM8.71227 67.4845C8.31951 67.4829 7.98393 67.3793 7.70552 67.1738C7.42711 66.9683 7.21416 66.6692 7.06667 66.2764C6.91918 65.8837 6.84544 65.4106 6.84544 64.8571C6.84544 64.3052 6.91918 63.8337 7.06667 63.4426C7.21582 63.0515 7.4296 62.7532 7.70801 62.5478C7.98807 62.3423 8.32283 62.2395 8.71227 62.2395C9.10171 62.2395 9.43564 62.3431 9.71404 62.5502C9.99245 62.7557 10.2054 63.054 10.3529 63.4451C10.502 63.8346 10.5766 64.3052 10.5766 64.8571C10.5766 65.4122 10.5029 65.8862 10.3554 66.2789C10.2079 66.67 9.99494 66.9692 9.71653 67.1763C9.43812 67.3818 9.10337 67.4845 8.71227 67.4845ZM8.71227 66.8208C9.05697 66.8208 9.32626 66.6526 9.52015 66.3162C9.7157 65.9798 9.81348 65.4934 9.81348 64.8571C9.81348 64.4345 9.76873 64.0773 9.67924 63.7857C9.59141 63.4924 9.46464 63.2703 9.29892 63.1195C9.13485 62.967 8.93931 62.8908 8.71227 62.8908C8.36923 62.8908 8.09993 63.0598 7.90439 63.3979C7.70884 63.736 7.61023 64.2223 7.60858 64.8571C7.60858 65.2813 7.65249 65.6401 7.74032 65.9334C7.82981 66.2251 7.95659 66.4463 8.12065 66.5971C8.28471 66.7463 8.48192 66.8208 8.71227 66.8208Z" fill="#C5C5C5"></path><path d="M2.66122 55.3201L4.88352 50.9252V50.8879H2.31321V50.2292H5.67898V50.9103L3.46413 55.3201H2.66122ZM8.20641 55.4046C7.81365 55.4029 7.47807 55.2994 7.19966 55.0939C6.92125 54.8884 6.7083 54.5892 6.56081 54.1965C6.41332 53.8037 6.33958 53.3306 6.33958 52.7771C6.33958 52.2253 6.41332 51.7538 6.56081 51.3627C6.70996 50.9716 6.92374 50.6733 7.20215 50.4678C7.48221 50.2623 7.81697 50.1596 8.20641 50.1596C8.59585 50.1596 8.92978 50.2631 9.20819 50.4703C9.48659 50.6758 9.69954 50.9741 9.84703 51.3652C9.99618 51.7546 10.0708 52.2253 10.0708 52.7771C10.0708 53.3323 9.99701 53.8062 9.84952 54.199C9.70203 54.5901 9.48908 54.8892 9.21067 55.0963C8.93226 55.3018 8.59751 55.4046 8.20641 55.4046ZM8.20641 54.7409C8.55111 54.7409 8.8204 54.5727 9.01429 54.2363C9.20984 53.8999 9.30762 53.4135 9.30762 52.7771C9.30762 52.3545 9.26287 51.9974 9.17338 51.7057C9.08555 51.4124 8.95878 51.1903 8.79306 51.0395C8.629 50.8871 8.43345 50.8108 8.20641 50.8108C7.86337 50.8108 7.59408 50.9799 7.39853 51.3179C7.20298 51.656 7.10437 52.1424 7.10272 52.7771C7.10272 53.2013 7.14663 53.5601 7.23446 53.8534C7.32395 54.1451 7.45073 54.3664 7.61479 54.5172C7.77885 54.6663 7.97606 54.7409 8.20641 54.7409Z" fill="#C5C5C5"></path><path d="M4.20987 43.3096C3.85357 43.3096 3.53871 43.2483 3.26527 43.1256C2.99349 43.003 2.78054 42.834 2.62642 42.6185C2.4723 42.4031 2.39607 42.1578 2.39773 41.8827C2.39607 41.6673 2.43999 41.4693 2.52947 41.2886C2.62062 41.1063 2.74408 40.9547 2.89986 40.8337C3.05563 40.7111 3.22964 40.6332 3.42188 40.6001V40.5702C3.16832 40.5089 2.96532 40.373 2.81286 40.1626C2.66039 39.9521 2.58499 39.7102 2.58665 39.4367C2.58499 39.1765 2.65376 38.9445 2.79297 38.7407C2.93383 38.5352 3.12689 38.3736 3.37216 38.256C3.61742 38.1383 3.89666 38.0795 4.20987 38.0795C4.51977 38.0795 4.79652 38.1391 5.04013 38.2585C5.28539 38.3761 5.47846 38.5377 5.61932 38.7432C5.76018 38.947 5.83144 39.1782 5.8331 39.4367C5.83144 39.7102 5.75355 39.9521 5.59943 40.1626C5.44531 40.373 5.24479 40.5089 4.99787 40.5702V40.6001C5.18845 40.6332 5.35997 40.7111 5.51243 40.8337C5.66655 40.9547 5.78918 41.1063 5.88033 41.2886C5.97313 41.4693 6.02036 41.6673 6.02202 41.8827C6.02036 42.1578 5.94247 42.4031 5.78835 42.6185C5.63423 42.834 5.42045 43.003 5.14702 43.1256C4.87524 43.2483 4.56286 43.3096 4.20987 43.3096ZM4.20987 42.6807C4.42034 42.6807 4.60263 42.6459 4.75675 42.5763C4.91087 42.505 5.03018 42.4064 5.1147 42.2805C5.19922 42.1529 5.24231 42.0037 5.24396 41.833C5.24231 41.6557 5.1959 41.4991 5.10476 41.3632C5.01527 41.2273 4.89347 41.1204 4.73935 41.0425C4.58523 40.9647 4.40874 40.9257 4.20987 40.9257C4.00935 40.9257 3.8312 40.9647 3.67543 41.0425C3.51965 41.1204 3.39702 41.2273 3.30753 41.3632C3.21804 41.4991 3.17412 41.6557 3.17578 41.833C3.17412 42.0037 3.21473 42.1529 3.29759 42.2805C3.3821 42.4064 3.50225 42.505 3.65803 42.5763C3.8138 42.6459 3.99775 42.6807 4.20987 42.6807ZM4.20987 40.3117C4.37891 40.3117 4.52888 40.2778 4.6598 40.2098C4.79072 40.1419 4.89347 40.0474 4.96804 39.9264C5.04427 39.8054 5.08322 39.6638 5.08487 39.5014C5.08322 39.3423 5.0451 39.2031 4.97053 39.0837C4.89761 38.9644 4.79569 38.8724 4.66477 38.8078C4.53385 38.7415 4.38222 38.7084 4.20987 38.7084C4.03421 38.7084 3.88009 38.7415 3.74751 38.8078C3.6166 38.8724 3.51468 38.9644 3.44176 39.0837C3.36884 39.2031 3.33322 39.3423 3.33487 39.5014C3.33322 39.6638 3.36967 39.8054 3.44425 39.9264C3.51882 40.0474 3.62157 40.1419 3.75249 40.2098C3.88506 40.2778 4.03752 40.3117 4.20987 40.3117ZM8.68493 43.3245C8.29217 43.3229 7.95659 43.2193 7.67818 43.0138C7.39977 42.8083 7.18682 42.5092 7.03933 42.1164C6.89184 41.7237 6.81809 41.2505 6.81809 40.697C6.81809 40.1452 6.89184 39.6737 7.03933 39.2826C7.18848 38.8915 7.40225 38.5932 7.68066 38.3877C7.96073 38.1822 8.29548 38.0795 8.68493 38.0795C9.07437 38.0795 9.40829 38.1831 9.6867 38.3902C9.96511 38.5957 10.1781 38.894 10.3256 39.2851C10.4747 39.6745 10.5493 40.1452 10.5493 40.697C10.5493 41.2522 10.4755 41.7261 10.328 42.1189C10.1805 42.51 9.9676 42.8091 9.68919 43.0163C9.41078 43.2218 9.07602 43.3245 8.68493 43.3245ZM8.68493 42.6608C9.02962 42.6608 9.29892 42.4926 9.49281 42.1562C9.68836 41.8198 9.78613 41.3334 9.78613 40.697C9.78613 40.2744 9.74139 39.9173 9.6519 39.6256C9.56407 39.3323 9.43729 39.1103 9.27157 38.9595C9.10751 38.807 8.91196 38.7308 8.68493 38.7308C8.34189 38.7308 8.07259 38.8998 7.87704 39.2379C7.68149 39.5759 7.58289 40.0623 7.58123 40.697C7.58123 41.1213 7.62515 41.48 7.71298 41.7734C7.80247 42.065 7.92924 42.2863 8.09331 42.4371C8.25737 42.5862 8.45458 42.6608 8.68493 42.6608Z" fill="#C5C5C5"></path><path d="M4.18253 25.9995C4.40956 26.0012 4.63329 26.0426 4.85369 26.1238C5.0741 26.205 5.27296 26.3376 5.45028 26.5215C5.62926 26.7055 5.77178 26.9541 5.87784 27.2673C5.98556 27.5788 6.04025 27.9666 6.0419 28.4306C6.0419 28.8764 5.99716 29.2733 5.90767 29.6213C5.81818 29.9677 5.68975 30.2602 5.52237 30.4988C5.35665 30.7374 5.1553 30.9189 4.91832 31.0432C4.68134 31.1675 4.41454 31.2296 4.1179 31.2296C3.81463 31.2296 3.54534 31.17 3.31001 31.0507C3.07469 30.9313 2.88329 30.7664 2.7358 30.556C2.5883 30.3439 2.49633 30.1003 2.45987 29.8252H3.21804C3.26776 30.0439 3.36884 30.2212 3.52131 30.3571C3.67543 30.4914 3.87429 30.5585 4.1179 30.5585C4.49077 30.5585 4.78161 30.3961 4.99041 30.0713C5.19922 29.7448 5.30445 29.2891 5.30611 28.7041H5.26634C5.18016 28.8466 5.07244 28.9692 4.94318 29.072C4.81558 29.1747 4.67223 29.2543 4.51314 29.3106C4.35405 29.3669 4.18419 29.3951 4.00355 29.3951C3.71023 29.3951 3.44342 29.323 3.20312 29.1789C2.96283 29.0347 2.77143 28.8366 2.62891 28.5847C2.48639 28.3329 2.41513 28.0453 2.41513 27.7222C2.41513 27.4007 2.48804 27.109 2.63388 26.8472C2.78137 26.5853 2.98686 26.3782 3.25036 26.2257C3.51551 26.0716 3.82623 25.9962 4.18253 25.9995ZM4.18501 26.6458C3.99112 26.6458 3.81629 26.6939 3.66051 26.79C3.50639 26.8845 3.38459 27.0129 3.2951 27.1753C3.20561 27.3361 3.16087 27.515 3.16087 27.7122C3.16087 27.9094 3.20395 28.0884 3.29013 28.2492C3.37796 28.4083 3.49728 28.535 3.64808 28.6295C3.80054 28.7223 3.97455 28.7687 4.1701 28.7687C4.31593 28.7687 4.45182 28.7405 4.57777 28.6842C4.70372 28.6278 4.81392 28.5499 4.90838 28.4505C5.00284 28.3494 5.07659 28.2351 5.12962 28.1075C5.18265 27.9799 5.20916 27.8456 5.20916 27.7048C5.20916 27.5175 5.16442 27.3435 5.07493 27.1828C4.9871 27.022 4.86612 26.8928 4.712 26.795C4.55788 26.6955 4.38222 26.6458 4.18501 26.6458ZM8.71227 31.2446C8.31951 31.2429 7.98393 31.1393 7.70552 30.9338C7.42711 30.7283 7.21416 30.4292 7.06667 30.0365C6.91918 29.6437 6.84544 29.1706 6.84544 28.6171C6.84544 28.0652 6.91918 27.5937 7.06667 27.2026C7.21582 26.8115 7.4296 26.5133 7.70801 26.3078C7.98807 26.1023 8.32283 25.9995 8.71227 25.9995C9.10171 25.9995 9.43564 26.1031 9.71404 26.3102C9.99245 26.5157 10.2054 26.814 10.3529 27.2051C10.502 27.5946 10.5766 28.0652 10.5766 28.6171C10.5766 29.1722 10.5029 29.6462 10.3554 30.0389C10.2079 30.43 9.99494 30.7292 9.71653 30.9363C9.43812 31.1418 9.10337 31.2446 8.71227 31.2446ZM8.71227 30.5808C9.05697 30.5808 9.32626 30.4126 9.52015 30.0762C9.7157 29.7398 9.81348 29.2534 9.81348 28.6171C9.81348 28.1945 9.76873 27.8374 9.67924 27.5457C9.59141 27.2524 9.46464 27.0303 9.29892 26.8795C9.13485 26.727 8.93931 26.6508 8.71227 26.6508C8.36923 26.6508 8.09993 26.8198 7.90439 27.1579C7.70884 27.496 7.61023 27.9824 7.60858 28.6171C7.60858 29.0413 7.65249 29.4001 7.74032 29.6934C7.82981 29.9851 7.95659 30.2063 8.12065 30.3571C8.28471 30.5063 8.48192 30.5808 8.71227 30.5808Z" fill="#C5C5C5"></path><path d="M2.42116 13.989V19.08H1.65057V14.7596H1.62074L0.402699 15.5551V14.8193L1.67294 13.989H2.42116ZM5.57067 19.1645C5.17791 19.1628 4.84233 19.0592 4.56392 18.8537C4.28551 18.6483 4.07256 18.3491 3.92507 17.9564C3.77758 17.5636 3.70384 17.0905 3.70384 16.537C3.70384 15.9851 3.77758 15.5137 3.92507 15.1226C4.07422 14.7315 4.288 14.4332 4.56641 14.2277C4.84647 14.0222 5.18123 13.9194 5.57067 13.9194C5.96011 13.9194 6.29403 14.023 6.57244 14.2302C6.85085 14.4357 7.0638 14.734 7.21129 15.1251C7.36044 15.5145 7.43501 15.9851 7.43501 16.537C7.43501 17.0921 7.36127 17.5661 7.21378 17.9589C7.06629 18.35 6.85334 18.6491 6.57493 18.8562C6.29652 19.0617 5.96177 19.1645 5.57067 19.1645ZM5.57067 18.5008C5.91536 18.5008 6.18466 18.3326 6.37855 17.9961C6.5741 17.6597 6.67188 17.1734 6.67188 16.537C6.67188 16.1144 6.62713 15.7573 6.53764 15.4656C6.44981 15.1723 6.32304 14.9502 6.15732 14.7994C5.99325 14.647 5.7977 14.5707 5.57067 14.5707C5.22763 14.5707 4.95833 14.7398 4.76278 15.0778C4.56723 15.4159 4.46863 15.9023 4.46697 16.537C4.46697 16.9612 4.51089 17.32 4.59872 17.6133C4.68821 17.905 4.81499 18.1262 4.97905 18.277C5.14311 18.4262 5.34032 18.5008 5.57067 18.5008ZM10.0892 19.1645C9.69647 19.1628 9.36088 19.0592 9.08248 18.8537C8.80407 18.6483 8.59112 18.3491 8.44363 17.9564C8.29614 17.5636 8.22239 17.0905 8.22239 16.537C8.22239 15.9851 8.29614 15.5137 8.44363 15.1226C8.59277 14.7315 8.80655 14.4332 9.08496 14.2277C9.36503 14.0222 9.69978 13.9194 10.0892 13.9194C10.4787 13.9194 10.8126 14.023 11.091 14.2302C11.3694 14.4357 11.5824 14.734 11.7298 15.1251C11.879 15.5145 11.9536 15.9851 11.9536 16.537C11.9536 17.0921 11.8798 17.5661 11.7323 17.9589C11.5848 18.35 11.3719 18.6491 11.0935 18.8562C10.8151 19.0617 10.4803 19.1645 10.0892 19.1645ZM10.0892 18.5008C10.4339 18.5008 10.7032 18.3326 10.8971 17.9961C11.0927 17.6597 11.1904 17.1734 11.1904 16.537C11.1904 16.1144 11.1457 15.7573 11.0562 15.4656C10.9684 15.1723 10.8416 14.9502 10.6759 14.7994C10.5118 14.647 10.3163 14.5707 10.0892 14.5707C9.74618 14.5707 9.47689 14.7398 9.28134 15.0778C9.08579 15.4159 8.98719 15.9023 8.98553 16.537C8.98553 16.9612 9.02944 17.32 9.11728 17.6133C9.20676 17.905 9.33354 18.1262 9.4976 18.277C9.66167 18.4262 9.85887 18.5008 10.0892 18.5008Z" fill="#C5C5C5"></path><path d="M2.42116 1.90909V7H1.65057V2.67969H1.62074L0.402699 3.47514V2.73935L1.67294 1.90909H2.42116ZM5.72976 1.90909V7H4.95916V2.67969H4.92933L3.71129 3.47514V2.73935L4.98153 1.90909H5.72976ZM8.87926 7.08452C8.48651 7.08286 8.15092 6.97929 7.87251 6.77379C7.59411 6.5683 7.38116 6.26918 7.23366 5.87642C7.08617 5.48366 7.01243 5.01054 7.01243 4.45703C7.01243 3.90518 7.08617 3.43371 7.23366 3.04261C7.38281 2.65151 7.59659 2.35322 7.875 2.14773C8.15507 1.94223 8.48982 1.83949 8.87926 1.83949C9.2687 1.83949 9.60263 1.94306 9.88104 2.15021C10.1594 2.35571 10.3724 2.654 10.5199 3.0451C10.669 3.43454 10.7436 3.90518 10.7436 4.45703C10.7436 5.01219 10.6699 5.48615 10.5224 5.87891C10.3749 6.27 10.1619 6.56913 9.88352 6.77628C9.60511 6.98177 9.27036 7.08452 8.87926 7.08452ZM8.87926 6.42081C9.22396 6.42081 9.49325 6.2526 9.68714 5.91619C9.88269 5.57978 9.98047 5.09339 9.98047 4.45703C9.98047 4.03445 9.93572 3.67732 9.84624 3.38565C9.7584 3.09233 9.63163 2.87026 9.46591 2.71946C9.30185 2.567 9.1063 2.49077 8.87926 2.49077C8.53622 2.49077 8.26693 2.6598 8.07138 2.99787C7.87583 3.33594 7.77723 3.82232 7.77557 4.45703C7.77557 4.88127 7.81948 5.24006 7.90732 5.53338C7.9968 5.82505 8.12358 6.04628 8.28764 6.19709C8.4517 6.34624 8.64891 6.42081 8.87926 6.42081Z" fill="#C5C5C5"></path></svg></g><g transform="translate(10, 219)"><text class="contribution-stats remarks" x="0" y="0" style="font-weight:bold;fill:red">Deprecation Notice: The reimaginedreadme project has been deprecated and will shutdown on September 30th 2024 making it no longer usable/visible on your profile.</text></g></svg>